# xmcd
#
# Track frame offsets: 
#        150
#        22377
#        39609
#        61679
#        83403
#        104246
#        125815
#        148050
#        166893
#        190176
#        211222
#        230863
#        253159
#        271424
#
# Disc length: 3924 seconds
#
# Revision: 0
# Processed by: cddbd v1.5.2PL0 Copyright (c) Steve Scherf et al.
# Submitted via: ExactAudioCopyFreeDBPlugin 1.0
#
DISCID=d50f520e
DTITLE=小月 张琼 丁咚 雪儿 - 情满江南 蓝光CD
DYEAR=2009
DGENRE=Acid
TTITLE0=烟花三月
TTITLE1=望月
TTITLE2=月满西楼
TTITLE3=梦江南
TTITLE4=外婆的澎湖湾
TTITLE5=伊人红妆
TTITLE6=苏州河
TTITLE7=家乡美
TTITLE8=尘缘
TTITLE9=月亮走我也走
TTITLE10=中华民谣
TTITLE11=梦里水乡
TTITLE12=太湖美
TTITLE13=风含情水含笑 
EXTD=
EXTT0=
EXTT1=
EXTT2=
EXTT3=
EXTT4=
EXTT5=
EXTT6=
EXTT7=
EXTT8=
EXTT9=
EXTT10=
EXTT11=
EXTT12=
EXTT13=
PLAYORDER=
